<svg xmlns="http://www.w3.org/2000/svg" version="1.1" xmlns:xlink="http://www.w3.org/1999/xlink" viewBox="0 0 200 200"><rect width="200" height="200" fill="url('#gradient')"></rect><defs><linearGradient id="gradient" gradientTransform="rotate(97 0.5 0.5)"><stop offset="0%" stop-color="#594c45"></stop><stop offset="100%" stop-color="#141e10"></stop></linearGradient></defs><g><g fill="#3b3b3d" transform="matrix(2.0237154150197627,0,0,2.0237154150197627,7.828007931294643,114.9778374306298)" stroke="#836d66" stroke-width="0.7"><path d="M10.03-8.30L10.03-5.66L4.50-5.66L4.50 0L1.07 0L1.07-14.22L10.59-14.22L10.59-11.57L4.50-11.57L4.50-8.30L10.03-8.30ZM15.33-15L15.33 0L12.03 0L12.03-15L15.33-15ZM26.60 0L23.31 0Q23.13-0.32 23.00-0.95L23.00-0.95Q22.09 0.20 20.46 0.20L20.46 0.20Q18.96 0.20 17.92-0.71Q16.88-1.61 16.88-2.98L16.88-2.98Q16.88-4.70 18.14-5.58Q19.41-6.46 21.84-6.46L21.84-6.46L22.85-6.46L22.85-7.01Q22.85-8.47 21.59-8.47L21.59-8.47Q20.42-8.47 20.42-7.31L20.42-7.31L17.13-7.31Q17.13-8.85 18.43-9.80Q19.74-10.76 21.76-10.76Q23.78-10.76 24.95-9.78Q26.12-8.79 26.15-7.07L26.15-7.07L26.15-2.39Q26.17-0.94 26.60-0.17L26.60-0.17L26.60 0ZM21.25-2.15L21.25-2.15Q21.87-2.15 22.27-2.41Q22.68-2.68 22.85-3.01L22.85-3.01L22.85-4.70L21.89-4.70Q20.18-4.70 20.18-3.15L20.18-3.15Q20.18-2.71 20.48-2.43Q20.78-2.15 21.25-2.15ZM33.51-2.97L33.51-2.97Q33.51-3.39 33.07-3.64Q32.63-3.90 31.40-4.17Q30.17-4.44 29.37-4.89Q28.56-5.33 28.14-5.97Q27.72-6.60 27.72-7.42L27.72-7.42Q27.72-8.88 28.93-9.82Q30.13-10.76 32.07-10.76L32.07-10.76Q34.16-10.76 35.43-9.81Q36.70-8.87 36.70-7.32L36.70-7.32L33.40-7.32Q33.40-8.59 32.06-8.59L32.06-8.59Q31.54-8.59 31.19-8.31Q30.84-8.02 30.84-7.59L30.84-7.59Q30.84-7.15 31.27-6.88Q31.70-6.60 32.64-6.43Q33.58-6.25 34.30-6.01L34.30-6.01Q36.68-5.19 36.68-3.07L36.68-3.07Q36.68-1.62 35.40-0.71Q34.11 0.20 32.07 0.20L32.07 0.20Q30.71 0.20 29.65-0.29Q28.58-0.78 27.99-1.62Q27.39-2.46 27.39-3.39L27.39-3.39L30.47-3.39Q30.49-2.66 30.96-2.32Q31.43-1.98 32.16-1.98L32.16-1.98Q32.83-1.98 33.17-2.26Q33.51-2.53 33.51-2.97ZM41.44-15L41.44-9.43Q42.49-10.76 44.13-10.76L44.13-10.76Q45.88-10.76 46.77-9.73Q47.66-8.69 47.68-6.67L47.68-6.67L47.68 0L44.38 0L44.38-6.59Q44.38-7.43 44.03-7.83Q43.69-8.22 42.87-8.22L42.87-8.22Q41.86-8.22 41.44-7.58L41.44-7.58L41.44 0L38.14 0L38.14-15L41.44-15ZM57.75-4.81L61.16-4.81Q61.09-3.33 60.36-2.19Q59.63-1.05 58.31-0.43Q56.98 0.20 55.28 0.20L55.28 0.20Q52.48 0.20 50.87-1.63Q49.26-3.46 49.26-6.79L49.26-6.79L49.26-7.49Q49.26-9.58 49.99-11.15Q50.71-12.71 52.08-13.57Q53.45-14.42 55.24-14.42L55.24-14.42Q57.83-14.42 59.40-13.06Q60.98-11.70 61.19-9.31L61.19-9.31L57.77-9.31Q57.73-10.61 57.12-11.17Q56.50-11.74 55.24-11.74L55.24-11.74Q53.96-11.74 53.37-10.78Q52.77-9.82 52.74-7.72L52.74-7.72L52.74-6.72Q52.74-4.44 53.32-3.47Q53.89-2.49 55.28-2.49L55.28-2.49Q56.46-2.49 57.09-3.05Q57.71-3.60 57.75-4.81L57.75-4.81ZM71.88 0L68.58 0Q68.41-0.32 68.27-0.95L68.27-0.95Q67.36 0.20 65.73 0.20L65.73 0.20Q64.24 0.20 63.19-0.71Q62.15-1.61 62.15-2.98L62.15-2.98Q62.15-4.70 63.42-5.58Q64.69-6.46 67.11-6.46L67.11-6.46L68.13-6.46L68.13-7.01Q68.13-8.47 66.87-8.47L66.87-8.47Q65.69-8.47 65.69-7.31L65.69-7.31L62.40-7.31Q62.40-8.85 63.71-9.80Q65.01-10.76 67.03-10.76Q69.05-10.76 70.22-9.78Q71.40-8.79 71.43-7.07L71.43-7.07L71.43-2.39Q71.45-0.94 71.88-0.17L71.88-0.17L71.88 0ZM66.52-2.15L66.52-2.15Q67.14-2.15 67.54-2.41Q67.95-2.68 68.13-3.01L68.13-3.01L68.13-4.70L67.17-4.70Q65.45-4.70 65.45-3.15L65.45-3.15Q65.45-2.71 65.75-2.43Q66.05-2.15 66.52-2.15ZM79.70-10.64L79.64-7.59L78.55-7.67Q77.00-7.67 76.56-6.69L76.56-6.69L76.56 0L73.27 0L73.27-10.57L76.36-10.57L76.46-9.21Q77.29-10.76 78.78-10.76L78.78-10.76Q79.31-10.76 79.70-10.64L79.70-10.64ZM80.22-5.36L80.22-5.36Q80.22-7.87 81.31-9.32Q82.39-10.76 84.34-10.76L84.34-10.76Q85.75-10.76 86.72-9.65L86.72-9.65L86.72-15L90.02-15L90.02 0L87.06 0L86.89-1.13Q85.88 0.20 84.32 0.20L84.32 0.20Q82.43 0.20 81.33-1.25Q80.22-2.70 80.22-5.36ZM83.53-5.76L83.52-5.16Q83.52-2.34 85.16-2.34L85.16-2.34Q86.25-2.34 86.72-3.26L86.72-3.26L86.72-7.29Q86.27-8.22 85.18-8.22L85.18-8.22Q83.65-8.22 83.53-5.76L83.53-5.76Z"></path></g></g></svg>